<svg width="50" height="50" viewBox="0 0 50 50" fill="none" xmlns="http://www.w3.org/2000/svg">
<path d="M35.4167 8.33342C34.8641 8.33342 34.3342 8.11392 33.9435 7.72322C33.5528 7.33252 33.3333 6.80262 33.3333 6.25008C33.3333 5.69755 33.5528 5.16764 33.9435 4.77694C34.3342 4.38624 34.8641 4.16675 35.4167 4.16675H43.75C44.3025 4.16675 44.8324 4.38624 45.2231 4.77694C45.6138 5.16764 45.8333 5.69755 45.8333 6.25008V14.5834C45.8333 15.136 45.6138 15.6659 45.2231 16.0566C44.8324 16.4473 44.3025 16.6667 43.75 16.6667C43.1975 16.6667 42.6676 16.4473 42.2769 16.0566C41.8862 15.6659 41.6667 15.136 41.6667 14.5834V11.2792L29.5979 23.348C29.2072 23.7386 28.6774 23.958 28.125 23.958C27.5726 23.958 27.0428 23.7386 26.6521 23.348L20.8333 17.5292L9.80625 28.5563C9.41333 28.9358 8.88707 29.1458 8.34083 29.1411C7.79459 29.1363 7.27206 28.9172 6.88579 28.531C6.49953 28.1447 6.28043 27.6222 6.27568 27.0759C6.27093 26.5297 6.48092 26.0034 6.86042 25.6105L19.3604 13.1105C19.7511 12.7199 20.2809 12.5005 20.8333 12.5005C21.3858 12.5005 21.9156 12.7199 22.3062 13.1105L28.125 18.9292L38.7208 8.33342H35.4167ZM10.4167 37.5001V43.7501C10.4167 44.3026 10.1972 44.8325 9.80647 45.2232C9.41577 45.6139 8.88587 45.8334 8.33333 45.8334C7.7808 45.8334 7.25089 45.6139 6.86019 45.2232C6.46949 44.8325 6.25 44.3026 6.25 43.7501V37.5001C6.25 36.9475 6.46949 36.4176 6.86019 36.0269C7.25089 35.6362 7.7808 35.4167 8.33333 35.4167C8.88587 35.4167 9.41577 35.6362 9.80647 36.0269C10.1972 36.4176 10.4167 36.9475 10.4167 37.5001ZM20.8333 29.1667C20.8333 28.6142 20.6138 28.0843 20.2231 27.6936C19.8324 27.3029 19.3025 27.0834 18.75 27.0834C18.1975 27.0834 17.6676 27.3029 17.2769 27.6936C16.8862 28.0843 16.6667 28.6142 16.6667 29.1667V43.7501C16.6667 44.3026 16.8862 44.8325 17.2769 45.2232C17.6676 45.6139 18.1975 45.8334 18.75 45.8334C19.3025 45.8334 19.8324 45.6139 20.2231 45.2232C20.6138 44.8325 20.8333 44.3026 20.8333 43.7501V29.1667ZM29.1667 31.2501C29.7192 31.2501 30.2491 31.4696 30.6398 31.8603C31.0305 32.251 31.25 32.7809 31.25 33.3334V43.7501C31.25 44.3026 31.0305 44.8325 30.6398 45.2232C30.2491 45.6139 29.7192 45.8334 29.1667 45.8334C28.6141 45.8334 28.0842 45.6139 27.6935 45.2232C27.3028 44.8325 27.0833 44.3026 27.0833 43.7501V33.3334C27.0833 32.7809 27.3028 32.251 27.6935 31.8603C28.0842 31.4696 28.6141 31.2501 29.1667 31.2501ZM41.6667 22.9167C41.6667 22.3642 41.4472 21.8343 41.0565 21.4436C40.6658 21.0529 40.1359 20.8334 39.5833 20.8334C39.0308 20.8334 38.5009 21.0529 38.1102 21.4436C37.7195 21.8343 37.5 22.3642 37.5 22.9167V43.7501C37.5 44.3026 37.7195 44.8325 38.1102 45.2232C38.5009 45.6139 39.0308 45.8334 39.5833 45.8334C40.1359 45.8334 40.6658 45.6139 41.0565 45.2232C41.4472 44.8325 41.6667 44.3026 41.6667 43.7501V22.9167Z" fill="white"/>
</svg>
