<svg width="50" height="50" viewBox="0 0 50 50" fill="none" xmlns="http://www.w3.org/2000/svg">
<path d="M12.5 16.6667V32.5397M22.5312 16.6667V32.5397M12.5 25.0001H22.5312M39.5833 33.3334L35.5708 30.1584M33.5646 32.5397C32.6333 32.5397 32.1667 32.5397 31.7792 32.4772C30.1875 32.2272 28.9438 31.2438 28.6271 29.9834C28.55 29.6772 28.55 29.3084 28.55 28.5709V20.6334C28.55 19.898 28.55 19.5292 28.6271 19.223C28.9438 17.9626 30.1875 16.9792 31.7792 16.7272C32.1667 16.6667 32.6333 16.6667 33.5625 16.6667C34.4958 16.6667 34.9604 16.6667 35.3479 16.7292C36.9396 16.9792 38.1833 17.9626 38.5021 19.223C38.5792 19.5292 38.5792 19.898 38.5792 20.6355V28.573C38.5792 29.3084 38.5792 29.6772 38.5021 29.9855C38.1854 31.2438 36.9396 32.2272 35.3479 32.4792C34.9604 32.5397 34.4958 32.5397 33.5646 32.5397Z" stroke="white" stroke-width="1.5" stroke-linecap="round"/>
<path d="M45.8337 25.0001C45.8337 34.8209 45.8337 39.7313 42.7816 42.7813C39.7337 45.8334 34.8212 45.8334 25.0003 45.8334C15.1795 45.8334 10.2691 45.8334 7.21699 42.7813C4.16699 39.7334 4.16699 34.8209 4.16699 25.0001C4.16699 15.1792 4.16699 10.2688 7.21699 7.21675C10.2712 4.16675 15.1795 4.16675 25.0003 4.16675C34.8212 4.16675 39.7316 4.16675 42.7816 7.21675C44.8107 9.24592 45.4899 12.098 45.7191 16.6667" stroke="white" stroke-width="1.5" stroke-linecap="round"/>
</svg>
