<svg width="50" height="50" viewBox="0 0 50 50" fill="none" xmlns="http://www.w3.org/2000/svg">
<path d="M33.5938 12.8906C33.5938 12.6758 33.418 12.5 33.2031 12.5H14.4531C14.2383 12.5 14.0625 12.6758 14.0625 12.8906V15.2344C14.0625 15.4492 14.2383 15.625 14.4531 15.625H33.2031C33.418 15.625 33.5938 15.4492 33.5938 15.2344V12.8906ZM33.2031 19.5312H14.4531C14.2383 19.5312 14.0625 19.707 14.0625 19.9219V22.2656C14.0625 22.4805 14.2383 22.6562 14.4531 22.6562H33.2031C33.418 22.6562 33.5938 22.4805 33.5938 22.2656V19.9219C33.5938 19.707 33.418 19.5312 33.2031 19.5312ZM23.4375 26.5625H14.4531C14.2383 26.5625 14.0625 26.7383 14.0625 26.9531V29.2969C14.0625 29.5117 14.2383 29.6875 14.4531 29.6875H23.4375C23.6523 29.6875 23.8281 29.5117 23.8281 29.2969V26.9531C23.8281 26.7383 23.6523 26.5625 23.4375 26.5625ZM21.0938 41.6016H10.1563V7.22656H37.5V24.0234C37.5 24.2383 37.6758 24.4141 37.8906 24.4141H40.625C40.8398 24.4141 41.0156 24.2383 41.0156 24.0234V5.27344C41.0156 4.40918 40.3174 3.71094 39.4531 3.71094H8.20313C7.33887 3.71094 6.64062 4.40918 6.64062 5.27344V43.5547C6.64062 44.4189 7.33887 45.1172 8.20313 45.1172H21.0938C21.3086 45.1172 21.4844 44.9414 21.4844 44.7266V41.9922C21.4844 41.7773 21.3086 41.6016 21.0938 41.6016ZM38.5156 37.9688C39.9316 36.6846 40.8203 34.8291 40.8203 32.7637C40.8203 28.8818 37.6709 25.7324 33.7891 25.7324C29.9072 25.7324 26.7578 28.8818 26.7578 32.7637C26.7578 34.8291 27.6465 36.6846 29.0625 37.9688C26.2793 39.5557 24.3652 42.4951 24.2188 45.8838C24.209 46.1035 24.3897 46.2891 24.6094 46.2891H26.958C27.1631 46.2891 27.334 46.1279 27.3486 45.918C27.5391 42.5391 30.3564 39.8438 33.7891 39.8438C37.2217 39.8438 40.0391 42.5391 40.2295 45.918C40.2393 46.123 40.4102 46.2891 40.6201 46.2891H42.9688C43.1934 46.2891 43.3691 46.1035 43.3594 45.8838C43.2178 42.4902 41.2988 39.5557 38.5156 37.9688ZM33.7891 28.8574C35.9473 28.8574 37.6953 30.6055 37.6953 32.7637C37.6953 34.9219 35.9473 36.6699 33.7891 36.6699C31.6309 36.6699 29.8828 34.9219 29.8828 32.7637C29.8828 30.6055 31.6309 28.8574 33.7891 28.8574Z" fill="white"/>
</svg>
